name C:\Users\u0101727\Documents\MyRepositories\upper-imu-dc\Results\main_tracking\Case_32\ABD01_linearAccelerations_bodyFrame.mot
datacolumns 4
datarows 105
range 8.06000000 9.10000000
endheader 
time	radius_imu_x	radius_imu_y	radius_imu_z	
          8.06000000	         -4.31661275	         -1.72467375	          9.55547848	
          8.07000000	         -4.36058353	         -1.65595735	          9.60323321	
          8.08000000	         -4.34794099	         -1.59239667	          9.64537009	
          8.09000000	         -4.29147930	         -1.52591580	          9.68146073	
          8.10000000	         -4.20838688	         -1.45043584	          9.71152879	
          8.11000000	         -4.11824885	         -1.36315215	          9.73572733	
          8.12000000	         -4.04033944	         -1.26432270	          9.75337110	
          8.13000000	         -3.98962340	         -1.15607080	          9.76255593	
          8.14000000	         -3.97198577	         -1.04113146	          9.76103074	
          8.15000000	         -3.98062950	         -0.92201347	          9.74764404	
          8.16000000	         -3.99542137	         -0.80048124	          9.72319963	
          8.17000000	         -3.98504572	         -0.67729583	          9.69045488	
          8.18000000	         -3.91056117	         -0.55220749	          9.65383575	
          8.19000000	         -3.72978912	         -0.42404792	          9.61931763	
          8.20000000	         -3.40345565	         -0.29089447	          9.59439479	
          8.21000000	         -2.90428027	         -0.15053143	          9.58759769	
          8.22000000	         -2.22874033	         -0.00158811	          9.60672072	
          8.23000000	         -1.40860831	          0.15451359	          9.65517416	
          8.24000000	         -0.51649039	          0.31174502	          9.72729860	
          8.25000000	          0.34256211	          0.45953175	          9.80602245	
          8.26000000	          1.05716772	          0.58559452	          9.86679624	
          8.27000000	          1.54216374	          0.68065856	          9.88683432	
          8.28000000	          1.75740335	          0.74282195	          9.85331724	
          8.29000000	          1.70617019	          0.77924123	          9.76600696	
          8.30000000	          1.42329273	          0.80390117	          9.63521074	
          8.31000000	          0.96373994	          0.83250480	          9.47766622	
          8.32000000	          0.39539406	          0.87756982	          9.31148992	
          8.33000000	         -0.20533359	          0.94659398	          9.15097841	
          8.34000000	         -0.75789550	          1.04322170	          9.00313496	
          8.35000000	         -1.18353935	          1.16890149	          8.86795764	
          8.36000000	         -1.41295619	          1.32331607	          8.74266561	
          8.37000000	         -1.39605881	          1.50393536	          8.62748558	
          8.38000000	         -1.11407539	          1.70567664	          8.52938737	
          8.39000000	         -0.59150604	          1.92107874	          8.46075527	
          8.40000000	          0.09801909	          2.14100444	          8.43249506	
          8.41000000	          0.84072542	          2.35608326	          8.44546986	
          8.42000000	          1.51142226	          2.55897146	          8.48728792	
          8.43000000	          2.01014233	          2.74626097	          8.53777970	
          8.44000000	          2.28433642	          2.91836402	          8.57880990	
          8.45000000	          2.32927403	          3.07787807	          8.60174092	
          8.46000000	          2.17731244	          3.22870423	          8.60939153	
          8.47000000	          1.88448943	          3.37631718	          8.61266593	
          8.48000000	          1.51544960	          3.52743191	          8.62407766	
          8.49000000	          1.12888544	          3.68823828	          8.65181209	
          8.50000000	          0.76771841	          3.86205515	          8.69715959	
          8.51000000	          0.45569436	          4.04760584	          8.75551363	
          8.52000000	          0.19897698	          4.23874851	          8.81923401	
          8.53000000	         -0.00963518	          4.42594649	          8.88039278	
          8.54000000	         -0.18542428	          4.59906417	          8.93237503	
          8.55000000	         -0.34557811	          4.75054820	          8.97047117	
          8.56000000	         -0.50241653	          4.87790012	          8.99203089	
          8.57000000	         -0.65805638	          4.98454559	          8.99639701	
          8.58000000	         -0.80320787	          5.07868174	          8.98451694	
          8.59000000	         -0.92095938	          5.17035009	          8.95828402	
          8.60000000	         -0.99358744	          5.26780117	          8.91991181	
          8.61000000	         -1.00846079	          5.37497847	          8.87163831	
          8.62000000	         -0.95970932	          5.49183305	          8.81580741	
          8.63000000	         -0.84628491	          5.61724648	          8.75494741	
          8.64000000	         -0.67083603	          5.75189515	          8.69136798	
          8.65000000	         -0.44279199	          5.89832912	          8.62617659	
          8.66000000	         -0.18364747	          6.05775567	          8.55863469	
          8.67000000	          0.07181936	          6.22600524	          8.48680778	
          8.68000000	          0.28379992	          6.39232258	          8.40983947	
          8.69000000	          0.42127666	          6.54236156	          8.33043388	
          8.70000000	          0.47170110	          6.66369058	          8.25517186	
          8.71000000	          0.44199889	          6.75083476	          8.19223376	
          8.72000000	          0.35318697	          6.80769902	          8.14809023	
          8.73000000	          0.23252663	          6.84640879	          8.12499108	
          8.74000000	          0.10641020	          6.88318655	          8.12024086	
          8.75000000	         -0.00477397	          6.93293904	          8.12717422	
          8.76000000	         -0.09040223	          7.00409709	          8.13701328	
          8.77000000	         -0.15211699	          7.09507874	          8.14067895	
          8.78000000	         -0.20345907	          7.19404786	          8.12996681	
          8.79000000	         -0.26478356	          7.28332639	          8.09797138	
          8.80000000	         -0.35406533	          7.34776703	          8.03898584	
          8.81000000	         -0.47775044	          7.38331619	          7.94826955	
          8.82000000	         -0.62690878	          7.40077624	          7.82211245	
          8.83000000	         -0.78102254	          7.42219817	          7.65850914	
          8.84000000	         -0.91703217	          7.47175222	          7.45844146	
          8.85000000	         -1.01827978	          7.56606782	          7.22732485	
          8.86000000	         -1.07886446	          7.70873231	          6.97580784	
          8.87000000	         -1.10284242	          7.89037692	          6.71910199	
          8.88000000	         -1.10102153	          8.09242154	          6.47458213	
          8.89000000	         -1.08786283	          8.29190370	          6.25829420	
          8.90000000	         -1.07860204	          8.46647728	          6.08158371	
          8.91000000	         -1.08579198	          8.59954992	          5.94892505	
          8.92000000	         -1.11556091	          8.68469296	          5.85749558	
          8.93000000	         -1.16506419	          8.72761070	          5.79850397	
          8.94000000	         -1.22280525	          8.74423642	          5.75982522	
          8.95000000	         -1.27229155	          8.75509543	          5.72916371	
          8.96000000	         -1.29766681	          8.77794005	          5.69686616	
          8.97000000	         -1.28895081	          8.82156178	          5.65764036	
          8.98000000	         -1.24466020	          8.88338725	          5.61081198	
          8.99000000	         -1.17060696	          8.95209512	          5.55928074	
          9.00000000	         -1.07577591	          9.01404127	          5.50767573	
          9.01000000	         -0.96810038	          9.06002639	          5.46027172	
          9.02000000	         -0.85248660	          9.08895218	          5.41929652	
          9.03000000	         -0.73124036	          9.10710774	          5.38423698	
          9.04000000	         -0.60552360	          9.12429769	          5.35233488	
          9.05000000	         -0.47639639	          9.14929736	          5.31990125	
          9.06000000	         -0.34489440	          9.18677084	          5.28381153	
          9.07000000	         -0.21166446	          9.23645217	          5.24263939	
          9.08000000	         -0.07729441	          9.29401964	          5.19709458	
          9.09000000	          0.05607686	          9.35268162	          5.14962219	
          9.10000000	          0.18293014	          9.40527611	          5.10330509	
